REM MD5 c610ed512f9eb5e7da9e2e8a60766863
FILE "Italian Job, The (USA).bin" BINARY
  TRACK 01 MODE2/2352
    INDEX 01 00:00:00
  TRACK 02 AUDIO
    INDEX 00 63:55:00
    INDEX 01 63:57:00
  TRACK 03 AUDIO
    INDEX 00 64:45:02
    INDEX 01 64:47:02
REM LEADOUT 67:48:34
